<svg width="157" height="100" viewBox="0 0 157 100" fill="none" xmlns="http://www.w3.org/2000/svg">
<path d="M81.2914 -48.9422C79.5849 -47.2357 76.8249 -47.2357 75.1184 -48.9422C73.412 -50.6486 73.412 -53.4087 75.1184 -55.1152C76.8249 -56.8216 79.5849 -56.8216 81.2914 -55.1152C82.9979 -53.4087 82.9979 -50.6486 81.2914 -48.9422ZM99.7511 -36.6555C98.0446 -38.362 95.2845 -38.362 93.5781 -36.6555C91.8716 -34.949 91.8716 -32.189 93.5781 -30.4825C95.2845 -28.776 98.0446 -28.776 99.7511 -30.4825C101.458 -32.189 101.458 -34.949 99.7511 -36.6555ZM118.211 -18.1959C116.504 -19.9024 113.744 -19.9024 112.038 -18.1959C110.331 -16.4894 110.331 -13.7294 112.038 -12.0229C113.744 -10.3164 116.504 -10.3164 118.211 -12.0229C119.917 -13.7294 119.917 -16.4894 118.211 -18.1959ZM136.67 0.26376C134.964 -1.44272 132.204 -1.44272 130.497 0.26376C128.791 1.97024 128.791 4.73029 130.497 6.43676C132.204 8.14324 134.964 8.14324 136.67 6.43676C138.377 4.73029 138.377 1.97024 136.67 0.26376ZM155.13 18.7234C153.424 17.0169 150.663 17.0169 148.957 18.7234C147.251 20.4299 147.251 23.1899 148.957 24.8964C150.663 26.6029 153.424 26.6029 155.13 24.8964C156.822 23.1899 156.822 20.4299 155.13 18.7234ZM62.8318 -36.6555C61.1253 -38.362 58.3653 -38.362 56.6588 -36.6555C54.9523 -34.949 54.9523 -32.189 56.6588 -30.4825C58.3653 -28.776 61.1253 -28.776 62.8318 -30.4825C64.5383 -32.189 64.5383 -34.949 62.8318 -36.6555ZM81.2914 -18.1959C79.5849 -19.9024 76.8249 -19.9024 75.1184 -18.1959C73.412 -16.4894 73.412 -13.7294 75.1184 -12.0229C76.8249 -10.3164 79.5849 -10.3164 81.2914 -12.0229C82.9979 -13.7294 82.9979 -16.4894 81.2914 -18.1959ZM99.7511 0.26376C98.0446 -1.44272 95.2845 -1.44272 93.5781 0.26376C91.8716 1.97024 91.8716 4.73029 93.5781 6.43676C95.2845 8.14324 98.0446 8.14324 99.7511 6.43676C101.458 4.73029 101.458 1.97024 99.7511 0.26376ZM118.211 18.7234C116.504 17.0169 113.744 17.0169 112.038 18.7234C110.331 20.4299 110.331 23.1899 112.038 24.8964C113.744 26.6029 116.504 26.6029 118.211 24.8964C119.917 23.1899 119.917 20.4299 118.211 18.7234ZM136.67 37.1831C134.964 35.4766 132.204 35.4766 130.497 37.1831C128.791 38.8895 128.791 41.6496 130.497 43.3561C132.204 45.0625 134.964 45.0625 136.67 43.3561C138.377 41.6496 138.377 38.8895 136.67 37.1831ZM44.3721 -18.1959C42.6657 -19.9024 39.9056 -19.9024 38.1991 -18.1959C36.4927 -16.4894 36.4927 -13.7294 38.1991 -12.0229C39.9056 -10.3164 42.6657 -10.3164 44.3721 -12.0229C46.0786 -13.7294 46.0786 -16.4894 44.3721 -18.1959ZM62.8318 0.26376C61.1253 -1.44272 58.3653 -1.44272 56.6588 0.26376C54.9523 1.97024 54.9523 4.73029 56.6588 6.43676C58.3653 8.14324 61.1253 8.14324 62.8318 6.43676C64.5383 4.73029 64.5383 1.97024 62.8318 0.26376ZM81.2914 18.7234C79.5849 17.0169 76.8249 17.0169 75.1184 18.7234C73.412 20.4299 73.412 23.1899 75.1184 24.8964C76.8249 26.6029 79.5849 26.6029 81.2914 24.8964C82.9979 23.1899 82.9979 20.4299 81.2914 18.7234ZM99.7511 37.1831C98.0446 35.4766 95.2845 35.4766 93.5781 37.1831C91.8716 38.8895 91.8716 41.6496 93.5781 43.3561C95.2845 45.0625 98.0446 45.0625 99.7511 43.3561C101.458 41.6496 101.458 38.8895 99.7511 37.1831ZM118.211 55.6427C116.504 53.9362 113.744 53.9362 112.038 55.6427C110.331 57.3492 110.331 60.1092 112.038 61.8157C113.744 63.5222 116.504 63.5222 118.211 61.8157C119.917 60.1092 119.917 57.3343 118.211 55.6427ZM25.9125 0.26376C24.206 -1.44272 21.446 -1.44272 19.7395 0.26376C18.033 1.97024 18.033 4.73029 19.7395 6.43676C21.446 8.14324 24.206 8.14324 25.9125 6.43676C27.619 4.73029 27.619 1.97024 25.9125 0.26376ZM44.3721 18.7234C42.6657 17.0169 39.9056 17.0169 38.1991 18.7234C36.4927 20.4299 36.4927 23.1899 38.1991 24.8964C39.9056 26.6029 42.6657 26.6029 44.3721 24.8964C46.0786 23.1899 46.0786 20.4299 44.3721 18.7234ZM62.8318 37.1831C61.1253 35.4766 58.3653 35.4766 56.6588 37.1831C54.9523 38.8895 54.9523 41.6496 56.6588 43.3561C58.3653 45.0625 61.1253 45.0625 62.8318 43.3561C64.5383 41.6496 64.5383 38.8895 62.8318 37.1831ZM81.2914 55.6427C79.5849 53.9362 76.8249 53.9362 75.1184 55.6427C73.412 57.3492 73.412 60.1092 75.1184 61.8157C76.8249 63.5222 79.5849 63.5222 81.2914 61.8157C82.9979 60.1092 82.9979 57.3343 81.2914 55.6427ZM99.7511 74.1023C98.0446 72.3959 95.2845 72.3959 93.5781 74.1023C91.8716 75.8088 91.8716 78.5688 93.5781 80.2753C95.2845 81.9818 98.0446 81.9818 99.7511 80.2753C101.458 78.5688 101.458 75.794 99.7511 74.1023ZM7.45285 18.7234C5.74637 17.0169 2.98634 17.0169 1.27986 18.7234C-0.42662 20.4299 -0.42662 23.1899 1.27986 24.8964C2.98634 26.6029 5.74637 26.6029 7.45285 24.8964C9.15933 23.1899 9.15933 20.4299 7.45285 18.7234ZM25.9125 37.1831C24.206 35.4766 21.446 35.4766 19.7395 37.1831C18.033 38.8895 18.033 41.6496 19.7395 43.3561C21.446 45.0625 24.206 45.0625 25.9125 43.3561C27.619 41.6496 27.619 38.8895 25.9125 37.1831ZM44.3721 55.6427C42.6657 53.9362 39.9056 53.9362 38.1991 55.6427C36.4927 57.3492 36.4927 60.1092 38.1991 61.8157C39.9056 63.5222 42.6657 63.5222 44.3721 61.8157C46.0786 60.1092 46.0786 57.3343 44.3721 55.6427ZM62.8318 74.1023C61.1253 72.3959 58.3653 72.3959 56.6588 74.1023C54.9523 75.8088 54.9523 78.5688 56.6588 80.2753C58.3653 81.9818 61.1253 81.9818 62.8318 80.2753C64.5383 78.5688 64.5383 75.794 62.8318 74.1023ZM81.2914 92.5471C79.5849 90.8407 76.8249 90.8407 75.1184 92.5471C73.412 94.2536 73.412 97.0137 75.1184 98.7201C76.8249 100.427 79.5849 100.427 81.2914 98.7201C82.9979 97.0285 82.9979 94.2536 81.2914 92.5471Z" fill="#2BA4DA"/>
</svg>
